<svg width="32" height="32" viewBox="0 0 32 32" fill="none" xmlns="http://www.w3.org/2000/svg">
<path d="M24.8612 19.7499H12.0406C11.8279 19.7502 11.6213 19.6782 11.4549 19.5457C11.2885 19.4131 11.1722 19.2279 11.125 19.0205L8.96621 9.61552C8.93463 9.47813 8.93444 9.3354 8.96565 9.19793C8.99687 9.06046 9.05868 8.9318 9.1465 8.82153C9.23431 8.71125 9.34586 8.6222 9.47285 8.56099C9.59983 8.49979 9.73899 8.46801 9.87996 8.46802H27.0218C27.163 8.46773 27.3023 8.4993 27.4296 8.56038C27.5568 8.62146 27.6686 8.71048 27.7566 8.82079C27.8446 8.9311 27.9066 9.05986 27.9379 9.19747C27.9692 9.33508 27.9691 9.47798 27.9375 9.61552L25.775 19.0205C25.7278 19.2276 25.6117 19.4126 25.4457 19.5451C25.2797 19.6776 25.0736 19.7498 24.8612 19.7499ZM12.7868 17.8749H24.115L25.8443 10.3449H11.0568L12.7868 17.8749Z" fill="white"/>
<path d="M13.8747 28.1249C13.1642 28.1249 12.4696 27.9142 11.8788 27.5195C11.2881 27.1247 10.8276 26.5637 10.5557 25.9072C10.2838 25.2508 10.2126 24.5285 10.3513 23.8316C10.4899 23.1347 10.832 22.4946 11.3344 21.9922C11.8369 21.4897 12.477 21.1476 13.1739 21.009C13.8707 20.8704 14.5931 20.9415 15.2495 21.2134C15.906 21.4853 16.467 21.9458 16.8618 22.5366C17.2565 23.1273 17.4672 23.8219 17.4672 24.5324C17.4662 25.4849 17.0874 26.3981 16.4139 27.0716C15.7404 27.7451 14.8272 28.124 13.8747 28.1249ZM13.8747 22.8156C13.535 22.8156 13.2029 22.9163 12.9205 23.1051C12.638 23.2938 12.4179 23.5621 12.2879 23.876C12.1579 24.1898 12.124 24.5352 12.1903 24.8684C12.2566 25.2015 12.4202 25.5076 12.6605 25.7477C12.9008 25.9879 13.2068 26.1514 13.54 26.2176C13.8732 26.2838 14.2186 26.2497 14.5324 26.1197C14.8462 25.9896 15.1144 25.7693 15.3031 25.4868C15.4917 25.2043 15.5924 24.8722 15.5922 24.5324C15.5917 24.0771 15.4106 23.6406 15.0886 23.3188C14.7666 22.9969 14.33 22.8159 13.8747 22.8156Z" fill="white"/>
<path d="M23.0261 28.1249C22.3156 28.1249 21.621 27.9142 21.0302 27.5195C20.4394 27.1247 19.979 26.5637 19.7071 25.9072C19.4351 25.2508 19.364 24.5285 19.5026 23.8316C19.6412 23.1347 19.9834 22.4946 20.4858 21.9922C20.9882 21.4897 21.6284 21.1476 22.3252 21.009C23.0221 20.8704 23.7444 20.9415 24.4009 21.2134C25.0573 21.4853 25.6184 21.9458 26.0131 22.5366C26.4079 23.1273 26.6186 23.8219 26.6186 24.5324C26.6176 25.4849 26.2388 26.3981 25.5653 27.0716C24.8918 27.7451 23.9786 28.124 23.0261 28.1249ZM23.0261 22.8156C22.6864 22.8156 22.3543 22.9163 22.0718 23.1051C21.7894 23.2938 21.5692 23.5621 21.4393 23.876C21.3093 24.1898 21.2753 24.5352 21.3416 24.8684C21.408 25.2015 21.5716 25.5076 21.8119 25.7477C22.0521 25.9879 22.3582 26.1514 22.6914 26.2176C23.0246 26.2838 23.37 26.2497 23.6838 26.1197C23.9976 25.9896 24.2658 25.7693 24.4544 25.4868C24.6431 25.2043 24.7437 24.8722 24.7436 24.5324C24.7431 24.0771 24.562 23.6406 24.24 23.3188C23.918 22.9969 23.4814 22.8159 23.0261 22.8156Z" fill="white"/>
<path d="M9.8802 10.3431C9.68341 10.3431 9.49161 10.2812 9.33199 10.1661C9.17237 10.051 9.05301 9.88858 8.99082 9.70188L7.38395 4.875H4.41895C4.1703 4.875 3.93185 4.77623 3.75603 4.60041C3.58022 4.4246 3.48145 4.18614 3.48145 3.9375C3.48145 3.68886 3.58022 3.4504 3.75603 3.27459C3.93185 3.09877 4.1703 3 4.41895 3H8.0627C8.25948 3.00002 8.45128 3.06196 8.6109 3.17705C8.77052 3.29214 8.88988 3.45455 8.95207 3.64125L10.7727 9.10938C10.8196 9.25029 10.8324 9.40033 10.81 9.54715C10.7876 9.69397 10.7306 9.83337 10.6437 9.95385C10.5569 10.0743 10.4426 10.1725 10.3104 10.2401C10.1782 10.3078 10.0318 10.3431 9.88332 10.3431H9.8802Z" fill="white"/>
</svg>
