<svg width="12" height="10" viewBox="0 0 12 10" fill="none" xmlns="http://www.w3.org/2000/svg">
<path d="M10.793 0.720339C10.5469 0.797683 10.5375 0.804714 7.40625 3.93596L4.32422 7.01565L2.92969 5.62112C1.6336 4.32971 1.52344 4.22425 1.37813 4.15628C1.00547 3.98284 0.609378 4.03675 0.314065 4.30393C0.0796901 4.51487 -0.0351536 4.85237 0.0210964 5.15706C0.0796901 5.47112 0.0421901 5.43128 1.9875 7.36956C3.68907 9.06643 3.79453 9.16721 3.9375 9.2305C4.12032 9.31018 4.3711 9.33362 4.53985 9.28909C4.82578 9.21175 4.70391 9.32659 8.35782 5.67268C12.1406 1.88518 11.925 2.11721 11.9836 1.78206C12.0633 1.31565 11.7703 0.863308 11.2992 0.720339C11.168 0.680495 10.9195 0.680495 10.793 0.720339Z" fill="#E73438"/>
</svg>
