<svg width="10" height="12" viewBox="0 0 10 12" fill="none" xmlns="http://www.w3.org/2000/svg">
<path fill-rule="evenodd" clip-rule="evenodd" d="M7.34666 0.314179C7.42369 0.140661 7.62853 0.060623 7.79069 0.159339C8.99063 0.889791 9.41962 2.46635 8.69664 3.71855L4.81127 10.4482C4.09933 11.6813 2.52259 12.1038 1.28949 11.3919C0.0563858 10.6799 -0.366083 9.10319 0.345823 7.87009L3.82629 1.84174C4.27719 1.06078 5.27582 0.793203 6.05678 1.2441C6.83771 1.69496 7.10529 2.69359 6.65443 3.47456L3.17396 9.5029C3.07901 9.66732 2.86878 9.72366 2.70436 9.62871C2.53998 9.5338 2.48364 9.32357 2.57855 9.15915L6.05902 3.13081C6.32006 2.67867 6.16517 2.10052 5.71303 1.83947C5.26086 1.57843 4.68274 1.73336 4.4217 2.18549L0.941232 8.21384C0.419145 9.11811 0.728967 10.2744 1.63324 10.7965C2.5375 11.3186 3.69381 11.0087 4.2159 10.1045L8.10124 3.3748C8.61972 2.47678 8.33602 1.35287 7.50776 0.794537C7.35033 0.688416 7.26962 0.487703 7.34666 0.314179V0.314179Z" fill="black" fill-opacity="0.5"/>
</svg>
