<svg width="156" height="43" viewBox="0 0 156 43" fill="none" xmlns="http://www.w3.org/2000/svg">
<path d="M39.488 20.864C39.7653 20.864 39.9787 20.992 40.128 21.248C40.2987 21.504 40.384 21.856 40.384 22.304C40.384 23.136 40.1813 23.7973 39.776 24.288C38.6667 25.6533 37.5787 26.6453 36.512 27.264C35.4453 27.8613 34.2933 28.16 33.056 28.16C31.1787 28.16 29.7493 27.232 28.768 25.376C27.808 23.4987 27.328 20.7893 27.328 17.248C27.328 14.816 27.5733 11.9147 28.064 8.544H28C25.8667 14.4107 23.8187 20.448 21.856 26.656C21.6427 27.3173 21.376 27.776 21.056 28.032C20.736 28.288 20.2773 28.416 19.68 28.416C18.656 28.416 17.9947 27.904 17.696 26.88C17.1627 25.1733 16.7467 23.136 16.448 20.768C16.1493 18.3787 16 15.968 16 13.536C16 12.128 16.0427 10.9013 16.128 9.856H16.064C15.232 14.1227 14.4747 17.4613 13.792 19.872C13.1307 22.2613 12.1707 24.256 10.912 25.856C9.65333 27.456 8 28.256 5.952 28.256C4.84267 28.256 3.85067 28.0213 2.976 27.552C2.12267 27.0613 1.46133 26.4107 0.992 25.6C0.522667 24.7893 0.288 23.9147 0.288 22.976C0.288 22.3147 0.458667 21.792 0.8 21.408C1.14133 21.0027 1.62133 20.8 2.24 20.8C3.072 20.8 3.584 21.2053 3.776 22.016C3.968 22.8053 4.27733 23.4133 4.704 23.84C5.152 24.2453 5.696 24.448 6.336 24.448C7.14667 24.448 7.92533 23.7547 8.672 22.368C9.44 20.9813 10.2293 18.752 11.04 15.68C11.872 12.608 12.768 8.53333 13.728 3.456C13.8987 2.51733 14.2507 1.856 14.784 1.472C15.3173 1.06667 16.1067 0.863998 17.152 0.863998C18.9013 0.863998 19.712 1.792 19.584 3.648C19.4773 5.46133 19.424 7.104 19.424 8.576C19.424 12.032 19.68 16.0853 20.192 20.736H20.256C20.8107 18.368 21.6747 15.5947 22.848 12.416C24.0213 9.23733 25.2693 6.24 26.592 3.424C26.9333 2.67733 27.232 2.13333 27.488 1.792C27.744 1.45067 28.032 1.216 28.352 1.088C28.672 0.938665 29.12 0.863998 29.696 0.863998C30.592 0.863998 31.2747 1.088 31.744 1.536C32.2347 1.96267 32.4373 2.58133 32.352 3.392C31.8187 8.768 31.552 12.96 31.552 15.968C31.552 18.592 31.7547 20.6507 32.16 22.144C32.5653 23.616 33.2373 24.352 34.176 24.352C34.88 24.352 35.552 24.1387 36.192 23.712C36.8533 23.264 37.664 22.464 38.624 21.312C38.8587 21.0133 39.1467 20.864 39.488 20.864ZM41.05 28.16C40.09 28.16 39.3007 27.7227 38.682 26.848C38.0847 25.952 37.786 24.8427 37.786 23.52C37.786 21.92 37.8927 20.4587 38.106 19.136C38.3193 17.792 38.6713 16.3733 39.162 14.88C39.3753 14.24 39.674 13.7813 40.058 13.504C40.442 13.2267 41.05 13.088 41.882 13.088C42.3513 13.088 42.6713 13.1627 42.842 13.312C43.034 13.4613 43.13 13.6853 43.13 13.984C43.13 14.1547 43.0127 14.7307 42.778 15.712C42.5647 16.5013 42.394 17.216 42.266 17.856C41.8393 20.096 41.626 21.5893 41.626 22.336C41.626 22.784 41.6793 23.104 41.786 23.296C41.8927 23.4667 42.0633 23.552 42.298 23.552C42.618 23.552 43.0127 23.232 43.482 22.592C43.9727 21.952 44.4847 20.9813 45.018 19.68C45.5727 18.3787 46.106 16.7787 46.618 14.88C46.7887 14.24 47.0447 13.7813 47.386 13.504C47.7487 13.2267 48.282 13.088 48.986 13.088C49.4767 13.088 49.818 13.152 50.01 13.28C50.202 13.3867 50.298 13.6 50.298 13.92C50.298 14.4533 50.0313 15.9147 49.498 18.304C48.9007 21.0347 48.602 22.72 48.602 23.36C48.602 23.7653 48.6873 24.0853 48.858 24.32C49.0287 24.5333 49.2527 24.64 49.53 24.64C49.9567 24.64 50.458 24.384 51.034 23.872C51.6313 23.3387 52.4207 22.4853 53.402 21.312C53.658 21.0133 53.946 20.864 54.266 20.864C54.5433 20.864 54.7567 20.992 54.906 21.248C55.0767 21.504 55.162 21.856 55.162 22.304C55.162 23.1573 54.9593 23.8187 54.554 24.288C53.6367 25.4187 52.6447 26.3467 51.578 27.072C50.5327 27.7973 49.338 28.16 47.994 28.16C46.97 28.16 46.2127 27.7653 45.722 26.976C45.2527 26.1867 45.018 25.0773 45.018 23.648C44.6553 25.0987 44.1113 26.2187 43.386 27.008C42.6607 27.776 41.882 28.16 41.05 28.16ZM58.6793 28.16C56.5886 28.16 54.9566 27.5733 53.7833 26.4C52.6313 25.2053 52.0553 23.6373 52.0553 21.696C52.0553 19.968 52.3966 18.4533 53.0793 17.152C53.7619 15.8507 54.6473 14.848 55.7352 14.144C56.8233 13.44 57.9646 13.088 59.1593 13.088C60.3326 13.088 61.2393 13.44 61.8793 14.144C62.5406 14.8267 62.8713 15.712 62.8713 16.8C62.8713 17.696 62.6686 18.4533 62.2633 19.072C61.8793 19.6907 61.3673 20 60.7273 20C60.3219 20 59.9913 19.904 59.7353 19.712C59.5006 19.52 59.3833 19.2533 59.3833 18.912C59.3833 18.7627 59.4046 18.592 59.4473 18.4C59.4899 18.208 59.5219 18.0693 59.5433 17.984C59.6499 17.664 59.7033 17.3653 59.7033 17.088C59.7033 16.8107 59.6286 16.5973 59.4792 16.448C59.3513 16.2987 59.1593 16.224 58.9033 16.224C58.4126 16.224 57.9539 16.448 57.5273 16.896C57.1006 17.3227 56.7593 17.9093 56.5033 18.656C56.2473 19.4027 56.1193 20.224 56.1193 21.12C56.1193 23.5947 57.1966 24.832 59.3513 24.832C60.2259 24.832 61.1646 24.544 62.1673 23.968C63.1913 23.3707 64.1939 22.4853 65.1753 21.312C65.4313 21.0133 65.7193 20.864 66.0393 20.864C66.3166 20.864 66.5299 20.992 66.6793 21.248C66.8499 21.504 66.9353 21.856 66.9353 22.304C66.9353 23.1147 66.7326 23.776 66.3273 24.288C65.3246 25.5253 64.1193 26.4853 62.7113 27.168C61.3246 27.8293 59.9806 28.16 58.6793 28.16ZM70.4605 28.16C68.3698 28.16 66.7378 27.5733 65.5645 26.4C64.4125 25.2053 63.8365 23.6373 63.8365 21.696C63.8365 19.968 64.1778 18.4533 64.8605 17.152C65.5432 15.8507 66.4285 14.848 67.5165 14.144C68.6045 13.44 69.7458 13.088 70.9405 13.088C72.1138 13.088 73.0205 13.44 73.6605 14.144C74.3218 14.8267 74.6525 15.712 74.6525 16.8C74.6525 17.696 74.4498 18.4533 74.0445 19.072C73.6605 19.6907 73.1485 20 72.5085 20C72.1032 20 71.7725 19.904 71.5165 19.712C71.2818 19.52 71.1645 19.2533 71.1645 18.912C71.1645 18.7627 71.1858 18.592 71.2285 18.4C71.2712 18.208 71.3032 18.0693 71.3245 17.984C71.4312 17.664 71.4845 17.3653 71.4845 17.088C71.4845 16.8107 71.4098 16.5973 71.2605 16.448C71.1325 16.2987 70.9405 16.224 70.6845 16.224C70.1938 16.224 69.7352 16.448 69.3085 16.896C68.8818 17.3227 68.5405 17.9093 68.2845 18.656C68.0285 19.4027 67.9005 20.224 67.9005 21.12C67.9005 23.5947 68.9778 24.832 71.1325 24.832C72.0072 24.832 72.9458 24.544 73.9485 23.968C74.9725 23.3707 75.9752 22.4853 76.9565 21.312C77.2125 21.0133 77.5005 20.864 77.8205 20.864C78.0978 20.864 78.3112 20.992 78.4605 21.248C78.6312 21.504 78.7165 21.856 78.7165 22.304C78.7165 23.1147 78.5138 23.776 78.1085 24.288C77.1058 25.5253 75.9005 26.4853 74.4925 27.168C73.1058 27.8293 71.7618 28.16 70.4605 28.16ZM102.871 12.48C105.836 12.48 108.065 13.1093 109.559 14.368C111.073 15.6267 111.831 17.344 111.831 19.52C111.831 22.3147 110.913 24.5547 109.079 26.24C107.265 27.904 104.577 28.96 101.015 29.408C100.588 29.4507 100.279 29.472 100.087 29.472C99.3825 29.472 98.8598 29.344 98.5185 29.088C98.1772 28.8533 98.0065 28.5227 98.0065 28.096C98.0065 27.712 98.1345 27.392 98.3905 27.136C98.6465 26.8587 99.0092 26.6773 99.4785 26.592C102.103 26.0587 104.023 25.28 105.239 24.256C106.476 23.232 107.095 21.8667 107.095 20.16C107.095 18.8373 106.679 17.8347 105.847 17.152C105.036 16.448 103.735 16.096 101.943 16.096C100.385 16.096 98.6785 16.32 96.8225 16.768C96.5878 18.176 96.3318 20.032 96.0545 22.336C95.7985 24.6187 95.6278 26.3467 95.5425 27.52C95.4998 28.224 95.2652 28.736 94.8385 29.056C94.4118 29.3973 93.8465 29.568 93.1425 29.568C92.4385 29.568 91.8945 29.3973 91.5105 29.056C91.1478 28.7147 90.9665 28.2667 90.9665 27.712C90.9665 26.4107 91.3292 23.2427 92.0545 18.208L91.9585 18.24C91.6385 18.3467 91.3612 18.4 91.1265 18.4C90.6785 18.4 90.3052 18.2507 90.0065 17.952C89.7292 17.6533 89.5905 17.28 89.5905 16.832C89.5905 15.936 90.0172 15.328 90.8705 15.008C91.8945 14.624 92.4812 14.4107 92.6305 14.368C92.8652 12.96 93.3132 10.624 93.9745 7.36C94.0385 6.976 94.1132 6.58133 94.1985 6.176C94.3052 5.77067 94.4012 5.33333 94.4865 4.864C92.1612 5.01333 90.4972 5.36533 89.4945 5.92C88.4918 6.45333 87.9905 7.27467 87.9905 8.384C87.9905 9.10933 88.2038 9.80267 88.6305 10.464C88.7372 10.6133 88.7905 10.7947 88.7905 11.008C88.7905 11.392 88.5985 11.7333 88.2145 12.032C87.8518 12.3307 87.4252 12.48 86.9345 12.48C86.2092 12.48 85.6545 12.3093 85.2705 11.968C84.9718 11.712 84.7158 11.2427 84.5025 10.56C84.2892 9.856 84.1825 9.152 84.1825 8.448C84.1825 5.86667 85.3238 3.97867 87.6065 2.784C89.8892 1.568 93.4412 0.959999 98.2625 0.959999C100.951 0.959999 103.02 0.938665 104.471 0.895998C105.943 0.853332 107.351 0.767999 108.695 0.639999C109.335 0.575999 109.793 0.682666 110.071 0.959999C110.369 1.216 110.519 1.632 110.519 2.208C110.519 2.86933 110.337 3.37067 109.975 3.712C109.633 4.05333 109.025 4.26667 108.151 4.352C106.636 4.52267 105.239 4.64 103.959 4.704C102.679 4.74667 101.036 4.768 99.0305 4.768C98.7318 6.28267 98.2625 8.72533 97.6225 12.096C97.6012 12.3093 97.5478 12.6293 97.4625 13.056C99.3825 12.672 101.185 12.48 102.871 12.48ZM128.214 20.864C128.492 20.864 128.705 20.992 128.854 21.248C129.025 21.504 129.11 21.856 129.11 22.304C129.11 23.1573 128.908 23.8187 128.502 24.288C127.713 25.248 126.593 26.1333 125.142 26.944C123.713 27.7547 122.177 28.16 120.534 28.16C118.294 28.16 116.556 27.552 115.318 26.336C114.081 25.12 113.462 23.456 113.462 21.344C113.462 19.872 113.772 18.5067 114.39 17.248C115.009 15.968 115.862 14.9547 116.95 14.208C118.06 13.4613 119.308 13.088 120.694 13.088C121.932 13.088 122.924 13.4613 123.67 14.208C124.417 14.9333 124.79 15.9253 124.79 17.184C124.79 18.656 124.257 19.9253 123.19 20.992C122.145 22.0373 120.364 22.8693 117.846 23.488C118.38 24.4693 119.393 24.96 120.886 24.96C121.846 24.96 122.934 24.6293 124.15 23.968C125.388 23.2853 126.454 22.4 127.35 21.312C127.606 21.0133 127.894 20.864 128.214 20.864ZM120.15 16.224C119.361 16.224 118.689 16.6827 118.134 17.6C117.601 18.5173 117.334 19.6267 117.334 20.928V20.992C118.593 20.6933 119.585 20.2453 120.31 19.648C121.036 19.0507 121.398 18.3573 121.398 17.568C121.398 17.1627 121.281 16.8427 121.046 16.608C120.833 16.352 120.534 16.224 120.15 16.224ZM141.481 20.928C141.758 20.928 141.971 21.056 142.121 21.312C142.291 21.568 142.377 21.9093 142.377 22.336C142.377 23.2533 142.078 23.8827 141.481 24.224C139.049 25.632 136.894 26.976 135.017 28.256C135.166 28.8533 135.241 29.5573 135.241 30.368C135.241 32.3307 134.867 34.2507 134.121 36.128C133.395 38.0267 132.414 39.5733 131.177 40.768C129.961 41.9627 128.67 42.56 127.305 42.56C126.131 42.56 125.225 42.2293 124.585 41.568C123.945 40.928 123.625 40.0107 123.625 38.816C123.625 37.0027 124.169 35.2427 125.257 33.536C126.345 31.8293 128.254 29.9093 130.985 27.776C130.793 27.4987 130.526 27.2533 130.185 27.04C129.865 26.8267 129.427 26.592 128.873 26.336C128.105 25.9947 127.55 25.6213 127.209 25.216C126.867 24.8107 126.697 24.3627 126.697 23.872C126.697 23.1467 126.91 22.6133 127.337 22.272C127.55 22.1013 127.902 21.9307 128.393 21.76C128.905 21.568 129.214 21.4507 129.321 21.408C130.345 21.0453 131.198 20.704 131.881 20.384C132.585 20.0427 133.193 19.5947 133.705 19.04C134.238 18.4853 134.505 17.8133 134.505 17.024C134.505 16.576 134.377 16.2347 134.121 16C133.865 15.7653 133.438 15.648 132.841 15.648C132.307 15.648 131.849 15.7227 131.465 15.872C131.102 16 130.686 16.2027 130.217 16.48C129.833 16.672 129.523 16.8213 129.289 16.928C129.075 17.0133 128.83 17.056 128.553 17.056C127.721 17.056 127.305 16.6507 127.305 15.84C127.305 15.3067 127.539 14.8053 128.009 14.336C128.499 13.8667 129.193 13.4933 130.089 13.216C130.985 12.9387 132.03 12.8 133.225 12.8C134.739 12.8 135.859 13.1627 136.585 13.888C137.331 14.6133 137.705 15.5627 137.705 16.736C137.705 18.528 137.022 19.9893 135.657 21.12C134.313 22.2507 132.574 23.1253 130.441 23.744C131.934 24.2347 133.054 24.896 133.801 25.728C135.699 24.384 138.014 22.8693 140.745 21.184C141.022 21.0133 141.267 20.928 141.481 20.928ZM131.625 30.816C128.382 33.5467 126.761 36.032 126.761 38.272C126.761 39.1253 127.059 39.552 127.657 39.552C128.169 39.552 128.734 39.072 129.353 38.112C129.993 37.1733 130.526 36.032 130.953 34.688C131.401 33.344 131.625 32.16 131.625 31.136V30.816ZM154.683 20.864C154.96 20.864 155.174 20.992 155.323 21.248C155.494 21.504 155.579 21.856 155.579 22.304C155.579 23.1573 155.376 23.8187 154.971 24.288C154.182 25.248 153.062 26.1333 151.611 26.944C150.182 27.7547 148.646 28.16 147.003 28.16C144.763 28.16 143.024 27.552 141.787 26.336C140.55 25.12 139.931 23.456 139.931 21.344C139.931 19.872 140.24 18.5067 140.859 17.248C141.478 15.968 142.331 14.9547 143.419 14.208C144.528 13.4613 145.776 13.088 147.163 13.088C148.4 13.088 149.392 13.4613 150.139 14.208C150.886 14.9333 151.259 15.9253 151.259 17.184C151.259 18.656 150.726 19.9253 149.659 20.992C148.614 22.0373 146.832 22.8693 144.315 23.488C144.848 24.4693 145.862 24.96 147.355 24.96C148.315 24.96 149.403 24.6293 150.619 23.968C151.856 23.2853 152.923 22.4 153.819 21.312C154.075 21.0133 154.363 20.864 154.683 20.864ZM146.619 16.224C145.83 16.224 145.158 16.6827 144.603 17.6C144.07 18.5173 143.803 19.6267 143.803 20.928V20.992C145.062 20.6933 146.054 20.2453 146.779 19.648C147.504 19.0507 147.867 18.3573 147.867 17.568C147.867 17.1627 147.75 16.8427 147.515 16.608C147.302 16.352 147.003 16.224 146.619 16.224Z" fill="white"/>
</svg>
