<svg width="29" height="29" viewBox="0 0 29 29" fill="none" xmlns="http://www.w3.org/2000/svg">
<g clip-path="url(#clip0_13_68)">
<path d="M13.3672 0.0340366C9.43632 0.402201 5.99824 2.1354 3.52304 5.00708C1.68788 7.13111 0.555072 9.59497 0.135931 12.376C-0.00567042 13.3219 -0.0113345 15.344 0.130267 16.2559C0.368158 17.8079 0.798626 19.1956 1.47265 20.5833L1.76152 21.1723L0.906244 25.0635C0.436126 27.2045 0.0566343 28.9661 0.0679624 28.9717C0.0792905 28.9831 0.186908 28.9717 0.311517 28.9434C0.436126 28.9151 2.20898 28.5073 4.24804 28.0428L7.958 27.1989L8.49609 27.4424C9.9291 28.0881 11.481 28.5073 13.016 28.6659C13.9676 28.7622 15.9953 28.7055 16.8393 28.5526C19.4221 28.0938 21.631 27.1026 23.6191 25.511C24.2365 25.0126 25.2957 23.9534 25.7941 23.336C27.5103 21.1893 28.5978 18.5895 28.8867 15.9501C28.966 15.2194 28.966 13.5485 28.8867 12.8292C28.4053 8.49615 25.9074 4.57095 22.0955 2.1524C20.5719 1.1895 18.5158 0.447512 16.5391 0.141653C15.9613 0.0566921 13.9109 -0.0169411 13.3672 0.0340366ZM15.6668 2.32798C18.3289 2.58853 20.8268 3.70435 22.7412 5.48853C24.8652 7.47095 26.1963 9.97447 26.5928 12.7555C26.7117 13.6165 26.7117 15.1684 26.5928 16.0067C26.2699 18.21 25.358 20.2944 23.976 21.9879C23.5568 22.492 22.6449 23.3983 22.1465 23.7948C20.4416 25.1598 18.2723 26.0831 16.0973 26.3663C15.3553 26.4626 13.69 26.4795 13.0443 26.3946C11.6283 26.202 10.3256 25.8112 9.07382 25.2051L8.26386 24.8086L5.65273 25.4034C4.21406 25.7319 3.03593 25.9924 3.03027 25.9868C3.0246 25.9754 3.26816 24.8483 3.57402 23.4776C3.87988 22.1069 4.1291 20.9288 4.1291 20.8608C4.13476 20.7928 4.04413 20.5776 3.93085 20.385C2.63378 18.1704 2.05605 15.5139 2.34492 13.0387C3.10956 6.45708 9.05117 1.68228 15.6668 2.32798Z" fill="#C9C9C9"/>
<path d="M9.41364 8.16202C9.1191 8.30929 8.65465 8.81339 8.36578 9.3005C7.77106 10.2974 7.72008 11.5831 8.21852 12.8519C8.82457 14.3812 10.6541 16.7148 12.291 18.0458C13.5541 19.0767 15.055 19.8017 16.9355 20.2888C17.7681 20.5097 18.6177 20.5267 19.2011 20.3398C19.8808 20.1245 20.7134 19.5298 20.9796 19.071C21.2629 18.5782 21.4214 17.4681 21.2402 17.2472C21.1552 17.1452 18.816 15.9784 18.3855 15.8255C17.9494 15.6669 17.8871 15.6952 17.4283 16.2673C16.4711 17.4737 16.3804 17.553 16.0406 17.4398C15.7687 17.3548 14.7775 16.862 14.415 16.6355C13.3162 15.9558 12.172 14.7776 11.4697 13.6109C11.1808 13.1294 11.1978 13.0558 11.7019 12.5177C11.9625 12.2401 12.189 11.9286 12.2797 11.736L12.4213 11.4189L12.308 11.1017C12.2457 10.9318 11.9795 10.2691 11.7189 9.63468C11.3621 8.76808 11.1922 8.42257 11.0392 8.25831L10.8353 8.04308H10.2463C9.75914 8.04308 9.61188 8.06573 9.41364 8.16202Z" fill="#C9C9C9"/>
</g>
<defs>
<clipPath id="clip0_13_68">
<rect width="29" height="29" fill="white"/>
</clipPath>
</defs>
</svg>
