<svg width="186" height="27" viewBox="0 0 186 27" fill="none" xmlns="http://www.w3.org/2000/svg">
<g clip-path="url(#clip0_75_5393)">
<path d="M0 13.4731V25.9371C0.579547 26.1157 1.18291 26.2126 1.79157 26.2253C4.06741 26.2253 6.33003 24.69 6.33003 24.69L18.3311 16.6611C19.7205 15.9292 20.3476 15.9139 21.6391 16.6611L33.6402 24.69C33.6402 24.69 35.9028 26.2253 38.1786 26.2253C40.4545 26.2253 42.7171 24.69 42.7171 24.69L54.7182 16.6611C56.1075 15.9292 56.7374 15.9139 58.0261 16.6611L70.0272 24.69C70.0272 24.69 72.2898 26.2253 74.5657 26.2253C76.8415 26.2253 79.1042 24.69 79.1042 24.69L91.1053 16.6611C92.4946 15.9292 93.1244 15.9139 94.4132 16.6611L106.414 24.69C106.414 24.69 108.677 26.2253 110.953 26.2253C113.229 26.2253 115.491 24.69 115.491 24.69L127.492 16.6611C128.882 15.9292 129.511 15.9139 130.8 16.6611L142.801 24.69C142.801 24.69 145.064 26.2253 147.34 26.2253C149.616 26.2253 151.878 24.69 151.878 24.69L163.879 16.6611C164.372 16.3576 164.933 16.174 165.512 16.1255C166.076 16.1613 166.618 16.3474 167.079 16.6611L179.08 24.69C179.08 24.69 181.343 26.2253 183.618 26.2253C184.166 26.2151 184.711 26.1361 185.241 25.9881V13.4731C185.241 6.43128 179.315 0.720825 172.009 0.720825H13.2317C5.92514 0.720825 0 6.43128 0 13.4731Z" fill="currentColor"/>
</g>
<defs>
<clipPath id="clip0_75_5393">
<rect width="185.243" height="25.5045" transform="translate(0 0.720825)"/>
</clipPath>
</defs>
</svg>
