<svg width="165" height="47" viewBox="0 0 165 47" fill="none" xmlns="http://www.w3.org/2000/svg">
<g clip-path="url(#clip0_195_17)">
<path d="M90.7142 32.356L92.8321 37.0129L88.424 36.3599L86.7137 40.1993L82.9481 37.2579L82.9481 32.8459L90.7142 32.356Z" fill="#70BF7F"/>
<path d="M75.1823 32.3559L73.0641 37.0125L77.4724 36.3597L79.1825 40.1989L82.9483 37.2577L82.9483 32.8458L75.1823 32.3559Z" fill="#63B734"/>
<path d="M82.9479 32.967C82.9479 32.967 82.8099 32.9671 84.0346 32.9667C85.5412 32.9667 87.4653 32.967 88.5637 32.967C90.5566 32.9676 95.9906 30.3856 95.9907 23.457C95.99 16.5278 90.4445 10.2496 88.2013 8.30862C85.8463 6.27097 83.6728 6.13504 82.9476 6.13474L82.9479 32.967Z" fill="#EA583A"/>
<path d="M82.9479 32.9671C82.9479 32.9671 83.086 32.9672 81.8606 32.9668C80.355 32.9671 78.4309 32.9668 77.3321 32.9672C75.3399 32.9672 69.9052 30.3857 69.9055 23.4568C69.9055 16.5282 75.452 10.2492 77.6949 8.30902C80.0498 6.27137 82.2231 6.13514 82.9476 6.13484L82.9479 32.9671Z" fill="#E94724"/>
<g opacity="0.75">
<path d="M90.0332 24.2838C90.0335 23.271 90.4894 22.4493 91.0523 22.4496C91.6146 22.4493 92.0709 23.2707 92.0706 24.2835C92.0712 25.2966 91.6145 26.1177 91.0517 26.1174C90.4895 26.1177 90.0332 25.2963 90.0332 24.2838Z" fill="#B31E24"/>
<path d="M86.5681 17.5585C86.5684 16.5457 87.0241 15.7243 87.5869 15.7246C88.1498 15.7249 88.6064 16.546 88.606 17.5588C88.6057 18.5715 88.1501 19.3929 87.5872 19.3926C87.0241 19.3926 86.5678 18.5712 86.5681 17.5585Z" fill="#B31E24"/>
<path d="M81.8814 24.2836C81.8817 23.2709 82.3374 22.4495 82.9002 22.4498C83.4634 22.4498 83.9191 23.2706 83.9194 24.284C83.9191 25.2967 83.4634 26.1182 82.9003 26.1182C82.3374 26.1178 81.8811 25.2964 81.8814 24.2836Z" fill="#B31E24"/>
<path d="M74.5447 24.2837C74.5447 23.2712 75.0004 22.4498 75.5635 22.4498C76.1267 22.4498 76.5824 23.2706 76.5829 24.2837C76.5827 25.2964 76.127 26.1178 75.5632 26.1172C75.0007 26.1178 74.5444 25.2965 74.5447 24.2837Z" fill="#B31E24"/>
<path d="M77.397 17.3544C77.3973 16.3416 77.8536 15.5208 78.4161 15.5202C78.9789 15.5205 79.4352 16.3419 79.4352 17.3544C79.4349 18.3671 78.9793 19.1885 78.4161 19.1885C77.8529 19.1885 77.3967 18.3672 77.397 17.3544Z" fill="#B31E24"/>
<path d="M81.8811 11.6484C81.8811 10.636 82.3368 9.81452 82.8999 9.81452C83.4619 9.81452 83.9184 10.6356 83.9187 11.649C83.9187 12.6615 83.4621 13.4826 82.8998 13.4829C82.337 13.4826 81.8804 12.6615 81.8811 11.6484Z" fill="#B31E24"/>
</g>
</g>
<g clip-path="url(#clip1_195_17)">
<path d="M143.473 8.5113L140.519 4.33397L138.86 8.46978L134.682 8.01049L135.323 12.7455L139.133 14.9705L143.473 8.5113Z" fill="#70BF7F"/>
<path d="M135.64 21.9238L130.551 21.4046L133.337 17.927L130.885 14.5143L135.323 12.7456L139.133 14.9705L135.64 21.9238Z" fill="#63B734"/>
<path d="M139.028 14.9093C139.028 14.9093 138.959 15.0285 139.577 13.9711C140.336 12.6701 141.306 11.0084 141.86 10.0599C142.865 8.33874 147.835 4.94833 153.818 8.44236C159.801 11.9373 162.426 19.8921 162.971 22.8081C163.543 25.8692 162.564 27.8147 162.199 28.441L139.028 14.9093Z" fill="#EA583A"/>
<path d="M139.028 14.9093C139.028 14.9093 139.098 14.7901 138.48 15.8483C137.72 17.1484 136.75 18.81 136.196 19.7587C135.191 21.479 134.68 27.4738 140.663 30.9678C146.646 34.4619 154.865 32.8389 157.672 31.8805C160.619 30.8745 161.833 29.0665 162.198 28.441L139.028 14.9093Z" fill="#E94724"/>
<g opacity="0.75">
<path d="M150.1 13.1704C150.974 13.6809 151.914 13.7015 152.197 13.2153C152.481 12.7299 152.002 11.9217 151.127 11.4112C150.253 10.8998 149.313 10.88 149.03 11.3662C148.746 11.8515 149.225 12.6598 150.1 13.1704Z" fill="#B31E24"/>
<path d="M154.161 19.5537C155.035 20.0642 155.974 20.085 156.258 19.5988C156.542 19.1126 156.063 18.3042 155.188 17.7938C154.313 17.2833 153.374 17.2626 153.091 17.7487C152.807 18.235 153.286 19.0433 154.161 19.5537Z" fill="#B31E24"/>
<path d="M145.99 20.2096C146.864 20.7201 147.803 20.7408 148.087 20.2546C148.371 19.7683 147.892 18.9609 147.017 18.4496C146.142 17.9391 145.203 17.9184 144.919 18.4046C144.636 18.8909 145.115 19.6991 145.99 20.2096Z" fill="#B31E24"/>
<path d="M142.289 26.545C143.164 27.0556 144.103 27.0763 144.387 26.59C144.671 26.1038 144.192 25.2963 143.317 24.7849C142.442 24.2744 141.503 24.2537 141.22 24.7408C140.935 25.2263 141.414 26.0345 142.289 26.545Z" fill="#B31E24"/>
<path d="M149.712 27.576C150.587 28.0865 151.526 28.1064 151.81 27.621C152.093 27.1348 151.614 26.3266 150.74 25.816C149.865 25.3055 148.926 25.2847 148.642 25.7711C148.358 26.2573 148.837 27.0656 149.712 27.576Z" fill="#B31E24"/>
<path d="M156.9 26.5816C157.774 27.0922 158.713 27.113 158.997 26.6267C159.281 26.1414 158.802 25.3331 157.927 24.8218C157.053 24.3112 156.113 24.2914 155.83 24.7768C155.546 25.2629 156.025 26.0713 156.9 26.5816Z" fill="#B31E24"/>
</g>
</g>
<g clip-path="url(#clip2_195_17)">
<path d="M21.4335 8.5113L24.3868 4.33397L26.0459 8.46978L30.2239 8.01049L29.5828 12.7455L25.7729 14.9705L21.4335 8.5113Z" fill="#70BF7F"/>
<path d="M29.2664 21.9238L34.3557 21.4046L31.5689 17.927L34.0217 14.5143L29.5828 12.7456L25.773 14.9705L29.2664 21.9238Z" fill="#63B734"/>
<path d="M25.8779 14.9093C25.8779 14.9093 25.9476 15.0285 25.3296 13.9711C24.5699 12.6701 23.5998 11.0084 23.0459 10.0599C22.0414 8.33874 17.0713 4.94833 11.0883 8.44236C5.10509 11.9373 2.48026 19.8921 1.9354 22.8081C1.36343 25.8692 2.34216 27.8147 2.70757 28.441L25.8779 14.9093Z" fill="#EA583A"/>
<path d="M25.8783 14.9093C25.8783 14.9093 25.8087 14.7901 26.4263 15.8483C27.1859 17.1484 28.1559 18.81 28.7103 19.7587C29.715 21.479 30.2265 27.4738 24.2431 30.9678C18.26 34.4619 10.0408 32.8389 7.23434 31.8805C4.28717 30.8745 3.07356 29.0665 2.70793 28.441L25.8783 14.9093Z" fill="#E94724"/>
<g opacity="0.75">
<path d="M14.8067 13.1704C13.932 13.6809 12.9925 13.7015 12.7089 13.2153C12.425 12.7299 12.9043 11.9217 13.779 11.4112C14.6535 10.8998 15.5928 10.88 15.8764 11.3662C16.1602 11.8515 15.681 12.6598 14.8067 13.1704Z" fill="#B31E24"/>
<path d="M10.7456 19.5537C9.87096 20.0642 8.93182 20.085 8.64827 19.5988C8.36464 19.1126 8.84346 18.3042 9.71815 17.7938C10.5928 17.2833 11.532 17.2626 11.8156 17.7487C12.0995 18.235 11.6203 19.0433 10.7456 19.5537Z" fill="#B31E24"/>
<path d="M18.9167 20.2096C18.042 20.7201 17.1029 20.7408 16.8193 20.2546C16.5353 19.7683 17.0143 18.9609 17.8892 18.4496C18.7639 17.9391 19.7031 17.9184 19.987 18.4046C20.2706 18.8909 19.7914 19.6991 18.9167 20.2096Z" fill="#B31E24"/>
<path d="M22.617 26.545C21.7427 27.0556 20.8036 27.0763 20.5196 26.59C20.2356 26.1038 20.7146 25.2963 21.5891 24.7849C22.4638 24.2744 23.4029 24.2537 23.6867 24.7408C23.9709 25.2263 23.4918 26.0345 22.617 26.545Z" fill="#B31E24"/>
<path d="M15.1942 27.576C14.3195 28.0865 13.3806 28.1064 13.0964 27.621C12.8128 27.1348 13.292 26.3266 14.1663 25.816C15.041 25.3055 15.9801 25.2847 16.2641 25.7711C16.5481 26.2573 16.0689 27.0656 15.1942 27.576Z" fill="#B31E24"/>
<path d="M8.00622 26.5816C7.13193 27.0922 6.19279 27.113 5.90882 26.6267C5.6254 26.1414 6.1042 25.3331 6.97918 24.8218C7.85346 24.3112 8.7928 24.2914 9.07656 24.7768C9.36013 25.2629 8.88139 26.0713 8.00622 26.5816Z" fill="#B31E24"/>
</g>
</g>
<defs>
<clipPath id="clip0_195_17">
<rect width="31.0398" height="31.0398" fill="white" transform="translate(104.896 24.9485) rotate(135)"/>
</clipPath>
<clipPath id="clip1_195_17">
<rect width="31.0398" height="31.0398" fill="white" transform="matrix(-0.9672 0.254015 0.254015 0.9672 157.021 0)"/>
</clipPath>
<clipPath id="clip2_195_17">
<rect width="31.0398" height="31.0398" fill="white" transform="translate(7.88477) rotate(14.7152)"/>
</clipPath>
</defs>
</svg>
